<svg version="1.1" id="Layer_1" xmlns="http://www.w3.org/2000/svg" xmlns:xlink="http://www.w3.org/1999/xlink" x="0px" y="0px"
	 width="100%" viewBox="0 0 1024 1024" enable-background="new 0 0 1024 1024" xml:space="preserve">
<path fill="#000000" opacity="1.000000" stroke="none" 
	d="
M548.017151,353.922241 
	C557.836731,359.618652 567.281433,365.238342 576.870789,370.599091 
	C580.149292,372.431885 581.853455,374.839294 581.836548,378.537506 
	C581.758118,395.679199 581.650879,412.820831 581.635010,429.962585 
	C581.631958,433.280426 580.015564,434.221649 576.969910,434.197937 
	C565.979919,434.112305 554.985352,434.330963 544.000000,434.091583 
	C539.791870,433.999878 538.715454,435.377014 538.764954,439.533447 
	C538.943115,454.510712 538.659546,469.493164 538.602905,484.473846 
	C538.595459,486.436157 538.233093,488.284485 536.545227,489.298065 
	C528.307312,494.244934 519.996155,499.069672 510.657928,504.556305 
	C510.657928,446.917694 510.657928,390.451599 510.657928,332.470062 
	C523.651062,339.932495 535.674988,346.838287 548.017151,353.922241 
M550.036682,391.894684 
	C546.984314,389.199615 543.702332,386.953064 538.987671,385.846924 
	C538.987671,390.751343 538.963623,395.010132 539.000244,399.268372 
	C539.013794,400.847198 539.479187,402.059937 541.305969,402.575195 
	C548.017151,404.468018 550.818115,402.420380 550.673157,395.542603 
	C550.652344,394.558228 550.498596,393.576721 550.036682,391.894684 
z"/>
<path fill="#000000" opacity="1.000000" stroke="none" 
	d="
M452.788300,424.739441 
	C455.952209,424.631622 457.272980,425.878754 457.240143,428.608887 
	C457.208099,431.272369 457.289795,433.936981 457.282898,436.601013 
	C457.257446,446.440125 458.083069,447.550110 468.111908,450.918091 
	C469.598358,448.862213 468.985870,446.467194 468.989166,444.240295 
	C469.032379,415.100159 469.130341,385.958984 468.904510,356.820465 
	C468.859222,350.976532 470.491852,347.124695 475.973297,344.519226 
	C482.979156,341.189240 489.276978,336.452820 497.311890,332.913086 
	C497.311890,390.200317 497.311890,446.703766 497.311890,503.766907 
	C492.103088,502.349396 488.368073,499.488800 484.404572,497.220642 
	C466.777252,487.133179 449.307556,476.769348 431.638519,466.756561 
	C427.466461,464.392334 425.743256,461.417572 425.857117,456.730347 
	C426.063293,448.243408 426.137268,439.741180 425.854126,431.259064 
	C425.691437,426.385040 427.121887,424.300842 432.335938,424.620972 
	C438.971985,425.028351 445.651581,424.726990 452.788300,424.739441 
z"/>
<path fill="#000000" opacity="1.000000" stroke="none" 
	d="
M585.044373,608.841431 
	C582.852600,611.612610 583.684326,613.486023 585.706604,615.616882 
	C590.174561,620.324585 590.066895,620.426758 585.299377,624.978699 
	C585.178955,625.093689 585.052917,625.202820 584.932434,625.317688 
	C577.943604,631.983765 577.854553,632.089905 570.656921,626.044739 
	C568.259521,624.031189 566.328979,625.250427 564.207764,625.967285 
	C548.904236,631.139038 534.305542,629.941467 520.855957,620.679749 
	C506.686951,610.922546 500.316315,591.941467 504.804626,573.973450 
	C509.126221,556.672852 522.082520,544.988525 539.587097,542.605713 
	C560.266418,539.790710 577.915344,547.631409 586.163635,564.009888 
	C593.639160,578.854004 593.126465,593.850159 585.044373,608.841431 
M534.298706,564.687927 
	C523.309021,573.899963 521.183044,587.722168 528.533752,600.059875 
	C532.237732,606.276733 544.146423,612.524048 552.346802,608.533203 
	C552.066895,606.125854 550.088806,604.926636 548.525635,603.558533 
	C545.849915,601.216858 546.008728,599.192932 548.604858,596.978760 
	C550.627319,595.253967 552.729492,593.560547 554.446716,591.554016 
	C557.232300,588.299133 559.629456,587.977905 562.486206,591.485168 
	C563.779358,593.072815 565.068176,595.050537 567.543152,595.137817 
	C572.827332,588.818054 570.249451,574.675781 564.167297,567.968445 
	C557.073242,560.145081 545.139526,558.613098 534.298706,564.687927 
z"/>
<path fill="#000000" opacity="1.000000" stroke="none" 
	d="
M414.566589,570.734802 
	C414.410522,562.980164 414.328796,555.651733 414.063873,548.329834 
	C413.924042,544.464233 415.580719,543.135559 419.401550,543.032959 
	C434.370178,542.631042 434.375092,542.532227 434.383026,557.457397 
	C434.394226,578.452271 434.398590,599.447083 434.393555,620.441956 
	C434.391937,627.189819 434.281708,626.518921 427.912262,627.396729 
	C417.852753,628.783203 411.765381,624.945374 406.492798,616.388367 
	C399.082520,604.362061 390.202332,593.240662 381.928375,581.748413 
	C381.085846,580.578186 380.090271,579.518127 379.039703,578.255493 
	C377.828613,580.256104 378.334595,582.113892 378.328308,583.864502 
	C378.282227,596.694519 378.218323,609.525940 378.375092,622.354248 
	C378.420197,626.047668 377.068848,627.234009 373.425171,627.314880 
	C358.019043,627.656921 358.008545,627.752808 358.007050,612.301575 
	C358.005005,591.306763 358.140869,570.310791 357.947906,549.317871 
	C357.903259,544.461487 359.628937,542.884766 364.347595,543.033875 
	C382.170776,543.597046 376.548431,540.205200 387.271454,554.770142 
	C395.947632,566.554810 404.363464,578.531189 412.894775,590.422546 
	C413.451477,590.362122 414.008148,590.301758 414.564850,590.241394 
	C414.564850,583.882141 414.564850,577.522949 414.566589,570.734802 
z"/>
<path fill="#000000" opacity="1.000000" stroke="none" 
	d="
M630.401489,543.530884 
	C633.037903,545.021790 632.283264,547.225830 632.290771,549.108765 
	C632.350769,564.093262 632.248718,579.078796 632.364990,594.062622 
	C632.447266,604.672058 638.237610,610.133972 648.618164,609.740356 
	C657.327271,609.410156 662.518555,603.602783 662.593384,593.633362 
	C662.705811,578.649719 662.800110,563.659851 662.460083,548.682739 
	C662.362183,544.371033 663.750061,542.960327 667.731812,543.103577 
	C671.223816,543.229187 674.723572,543.187195 678.219177,543.152039 
	C681.658630,543.117554 682.742798,544.806030 682.700684,548.148193 
	C682.501587,563.951721 682.245056,579.761047 682.469971,595.561768 
	C682.777710,617.182312 666.801941,630.503967 644.193176,628.690857 
	C626.366760,627.261230 616.545105,619.095459 613.274963,604.588806 
	C612.476868,601.048218 612.146240,597.336609 612.118225,593.699646 
	C612.004028,578.882385 612.204773,564.062195 612.033875,549.246094 
	C611.982849,544.821289 613.347595,542.732178 618.005615,543.084778 
	C621.977844,543.385437 625.979370,543.297974 630.401489,543.530884 
z"/>
<path fill="#000000" opacity="1.000000" stroke="none" 
	d="
M332.620453,547.026306 
	C332.530243,563.271912 331.949890,579.113098 332.525665,594.912109 
	C333.303711,616.261108 317.189789,630.994202 293.386780,628.546631 
	C276.070435,626.766052 266.382477,618.563293 263.291321,604.113586 
	C262.638123,601.060303 262.657074,597.832397 262.624847,594.682312 
	C262.464935,579.033020 262.448853,563.382019 262.239563,547.733643 
	C262.197388,544.580261 263.270020,543.289368 266.477509,543.044128 
	C282.386292,541.827759 282.382324,541.765442 282.387543,557.516235 
	C282.391632,569.842896 282.294373,582.170532 282.427002,594.495850 
	C282.537140,604.730408 288.387329,610.125305 298.593781,609.747864 
	C307.137878,609.431885 312.553131,603.617188 312.630188,594.226562 
	C312.754608,579.069092 312.818848,563.907532 312.578979,548.752930 
	C312.507874,544.261841 314.176514,542.806580 318.379822,543.062134 
	C321.865356,543.274109 325.373108,543.127441 328.871033,543.125549 
	C331.209320,543.124268 332.761841,543.951782 332.620453,547.026306 
z"/>
<path fill="#000000" opacity="1.000000" stroke="none" 
	d="
M729.061218,595.063477 
	C726.766113,608.636292 726.766113,608.640747 739.600708,608.646484 
	C746.264404,608.649475 752.929626,608.715332 759.591125,608.589417 
	C762.621155,608.532166 763.769043,609.669128 763.559692,612.733704 
	C763.321899,616.216492 763.305359,619.736206 763.511719,623.221008 
	C763.699951,626.399353 762.253601,627.260132 759.371521,627.248535 
	C743.711975,627.185425 728.051880,627.176270 712.392517,627.254456 
	C709.152222,627.270630 707.942566,625.872070 707.949951,622.752136 
	C708.008362,597.929993 708.024780,573.107605 708.003967,548.285339 
	C708.001221,545.009216 709.169067,543.564148 712.706726,543.533264 
	C728.027832,543.399475 743.356201,544.068665 758.670776,543.182434 
	C761.742493,543.004700 763.345764,544.292480 763.235779,547.558838 
	C763.123779,550.886719 763.110168,554.225647 763.244263,557.552002 
	C763.386108,561.071411 761.647217,562.236633 758.370789,562.208862 
	C749.875305,562.136719 741.376770,562.304321 732.883240,562.157898 
	C729.428772,562.098328 727.901917,563.363953 728.287964,566.828125 
	C728.361267,567.486267 728.296753,568.159668 728.295776,568.826050 
	C728.285339,575.777771 728.285339,575.782776 735.012512,575.801819 
	C740.676697,575.817871 746.344238,575.942444 752.003784,575.785278 
	C755.704163,575.682556 757.472412,576.796936 757.368958,580.889038 
	C756.975769,596.446045 759.561035,593.917542 744.268311,594.231934 
	C739.296631,594.334106 734.291443,593.636414 729.061218,595.063477 
z"/>
<path fill="#000000" opacity="1.000000" stroke="none" 
	d="
M481.322021,590.000122 
	C481.317810,600.989136 481.198303,611.479980 481.370728,621.966064 
	C481.432343,625.713135 480.390442,627.268616 476.337799,627.334778 
	C460.986938,627.585144 460.957520,627.712769 460.947998,612.261169 
	C460.935089,591.283203 461.054688,570.304810 460.929932,549.327698 
	C460.904144,544.989563 461.901459,543.231934 466.805695,543.281006 
	C481.309845,543.426208 481.314545,543.171814 481.319946,557.533508 
	C481.323975,568.189026 481.321472,578.844543 481.322021,590.000122 
z"/>
<path fill="#000000" opacity="1.000000" stroke="none" 
	d="
M435.177917,368.153564 
	C442.094757,364.173950 448.703217,360.392151 454.988495,356.795288 
	C457.656128,358.420410 457.125732,360.420319 457.130615,362.158508 
	C457.171753,376.810486 457.035461,391.464172 457.222595,406.113892 
	C457.280243,410.626709 455.734283,412.421661 451.146271,412.245056 
	C444.329651,411.982727 437.494263,412.082947 430.669800,412.199738 
	C427.275726,412.257843 425.850311,410.882477 425.886353,407.472107 
	C425.986603,397.982910 426.110229,388.487762 425.877838,379.003448 
	C425.719635,372.546387 430.614532,370.829712 435.177917,368.153564 
z"/>
<path fill="#000000" opacity="1.000000" stroke="none" 
	d="
M550.736572,467.973846 
	C550.740479,461.668793 550.849854,455.855560 550.707092,450.048523 
	C550.626038,446.748444 551.825806,445.025391 555.249329,445.052094 
	C562.718811,445.110352 570.188782,445.112549 577.658264,445.165497 
	C580.434326,445.185181 582.037048,446.460236 581.946228,449.414825 
	C581.930969,449.912109 581.883545,450.424591 581.974792,450.906586 
	C583.699036,460.012421 580.264099,465.936188 571.599609,469.546326 
	C566.282410,471.761810 561.500977,475.254639 556.449402,478.121582 
	C555.063538,478.908142 553.789490,480.207458 551.605469,479.485107 
	C549.974304,476.023590 551.064941,472.169678 550.736572,467.973846 
z"/>
<path fill="#000000" opacity="1.000000" stroke="none" 
	d="
M557.693115,665.345337 
	C560.885742,669.316101 563.151184,673.593628 567.692993,677.772705 
	C567.692993,669.978149 567.734924,663.403564 567.673889,656.829956 
	C567.646729,653.906311 567.835815,651.572693 571.816467,651.675659 
	C575.761902,651.777771 575.321472,654.395935 575.327759,656.860840 
	C575.352844,666.674866 575.410278,676.489929 575.285095,686.302368 
	C575.258545,688.383179 576.507629,691.329041 573.170166,692.147766 
	C570.026062,692.919006 567.498352,692.074463 565.451111,689.146240 
	C560.687744,682.333252 555.617676,675.734375 550.654724,669.061584 
	C549.892517,668.036743 549.038879,667.079895 547.344666,665.016418 
	C547.344666,673.408630 547.340454,680.492493 547.346924,687.576294 
	C547.349121,689.979004 547.504150,692.265320 543.940552,692.345337 
	C540.487610,692.422913 539.714722,690.673950 539.730103,687.714783 
	C539.783569,677.401978 539.705688,667.088501 539.756897,656.775696 
	C539.766235,654.898132 539.171021,652.399353 541.958069,651.922791 
	C544.547791,651.479980 547.286987,651.118103 549.208130,653.798096 
	C551.921143,657.582581 554.716248,661.308289 557.693115,665.345337 
z"/>
<path fill="#000000" opacity="1.000000" stroke="none" 
	d="
M480.442444,687.442749 
	C471.163116,695.203308 458.896942,695.074585 451.165039,687.400208 
	C444.049225,680.337219 443.398499,666.359863 449.814514,658.391418 
	C456.489258,650.101685 468.701263,648.400024 477.772491,654.495789 
	C487.937592,661.326538 489.330139,676.857239 480.442444,687.442749 
M453.308838,671.602966 
	C453.644775,680.609192 458.236450,685.762573 465.953979,685.794922 
	C472.916870,685.824097 478.141357,680.556213 478.629608,673.014099 
	C479.107269,665.635681 473.996704,659.065979 467.232452,658.362915 
	C459.823853,657.592896 454.585999,662.268127 453.308838,671.602966 
z"/>
<path fill="#000000" opacity="1.000000" stroke="none" 
	d="
M275.050659,673.310669 
	C271.852386,673.073608 269.005096,673.780701 265.926422,672.280334 
	C267.499817,670.570312 269.209900,670.855896 270.748505,670.806091 
	C303.697815,669.740173 336.648407,668.713684 369.597076,667.628723 
	C374.252899,667.475403 378.907471,667.142334 383.548859,666.735535 
	C387.249054,666.411194 388.627502,667.894653 388.440826,671.609314 
	C388.278564,674.837524 388.417328,677.538635 383.822906,677.337585 
	C370.180939,676.740662 356.525421,676.460205 342.879089,675.952576 
	C329.742310,675.463989 316.611389,674.819214 303.475830,674.294617 
	C294.161743,673.922668 284.844269,673.636414 275.050659,673.310669 
z"/>
<path fill="#000000" opacity="1.000000" stroke="none" 
	d="
M664.970764,676.203003 
	C653.665771,676.567017 642.852356,676.848267 632.047363,677.322632 
	C628.009338,677.499878 625.513794,677.011780 625.553894,671.848145 
	C625.592651,666.855042 628.063354,666.597351 631.831848,666.755005 
	C663.080505,668.062378 694.331787,669.311096 725.584473,670.520386 
	C731.072449,670.732727 736.572083,670.627502 742.063538,670.773865 
	C744.001099,670.825500 746.069519,670.392090 747.864319,672.817078 
	C720.398071,673.943726 692.931885,675.070312 664.970764,676.203003 
z"/>
<path fill="#000000" opacity="1.000000" stroke="none" 
	d="
M427.214844,663.358643 
	C427.177979,673.592041 422.289581,678.776306 413.206421,678.682678 
	C406.264923,678.611084 406.366089,678.614197 406.157623,685.495361 
	C406.071594,688.334412 407.555908,692.302734 402.222870,692.364807 
	C399.557831,692.395874 398.099884,691.463989 398.117157,688.676208 
	C398.187225,677.365112 398.262146,666.054077 398.306030,654.742859 
	C398.315521,652.294800 399.700531,651.650879 401.851898,651.681641 
	C406.180969,651.743408 410.523407,651.524048 414.838104,651.786377 
	C421.253082,652.176392 425.023193,655.742065 427.214844,663.358643 
M411.361542,659.125061 
	C409.146576,659.274841 406.161865,658.599121 406.348114,662.164917 
	C406.509857,665.261475 404.387360,669.376892 407.921417,671.212219 
	C410.490112,672.546204 414.128143,672.379517 416.860443,670.221680 
	C418.966064,668.558655 419.941498,666.320251 419.071167,663.641785 
	C418.003296,660.355286 415.528473,659.051453 411.361542,659.125061 
z"/>
<path fill="#000000" opacity="1.000000" stroke="none" 
	d="
M615.347961,671.059692 
	C615.349609,676.548157 615.368164,681.545959 615.346313,686.543640 
	C615.334106,689.318787 616.027100,692.464050 611.437988,692.356567 
	C606.808105,692.248169 607.778564,688.927551 607.744263,686.281433 
	C607.653687,679.285583 607.443909,672.274536 607.795654,665.295471 
	C608.036926,660.508728 606.479431,658.607239 601.611755,659.013000 
	C599.201355,659.213928 595.888672,659.918701 595.703674,655.672546 
	C595.603210,653.368225 596.227173,651.729858 598.947266,651.732971 
	C607.443115,651.742615 615.939026,651.739197 624.434814,651.713318 
	C626.700317,651.706482 627.827393,652.762146 627.832397,655.030457 
	C627.837463,657.310913 627.078552,658.796265 624.486755,659.086975 
	C621.752197,659.393555 618.371826,657.909607 616.411865,660.356445 
	C614.211792,663.103149 615.676453,666.803162 615.350525,670.069336 
	C615.334045,670.234375 615.348083,670.402344 615.347961,671.059692 
z"/>
<path fill="#000000" opacity="1.000000" stroke="none" 
	d="
M515.934204,672.000000 
	C515.930237,677.640991 515.906616,682.782349 515.932190,687.923462 
	C515.945312,690.556091 515.380005,692.394592 512.088501,692.358948 
	C509.113922,692.326660 507.857758,691.102051 507.863953,688.209106 
	C507.887085,677.429016 507.891724,666.648682 507.843506,655.868713 
	C507.830597,652.987427 508.976593,651.679504 511.990509,651.671265 
	C515.190186,651.662537 515.942932,653.396606 515.932739,656.076233 
	C515.913208,661.217529 515.932007,666.358887 515.934204,672.000000 
z"/>
</svg>